HIERARCHY
ROOT pelvis
{
OFFSET 0 0 0
CHANNELS 6 Xposition Yposition Zposition Xrotation Yrotation Zrotation
JOINT lfemur
{
OFFSET 0 104.741 0
CHANNELS 3 Xrotation Yrotation Zrotation
JOINT ltibia
{
OFFSET 0 0 -417.27
CHANNELS 3 Xrotation Yrotation Zrotation
JOINT lfoot
{
OFFSET 0 0 -429.744
CHANNELS 3 Xrotation Yrotation Zrotation
JOINT ltoes
{
OFFSET 122.101 0 0
CHANNELS 3 Xrotation Yrotation Zrotation
JOINT ltoe_EF
{
OFFSET 52.435 0 0
CHANNELS 3 Xrotation Yrotation Zrotation
End Site
{
OFFSET 0 0 0
}
}
}
}
}
}
JOINT rfemur
{
OFFSET 0 -104.741 0
CHANNELS 3 Xrotation Yrotation Zrotation
JOINT rtibia
{
OFFSET 0 0 -417.27
CHANNELS 3 Xrotation Yrotation Zrotation
JOINT rfoot
{
OFFSET 0 0 -420.802
CHANNELS 3 Xrotation Yrotation Zrotation
JOINT rtoes
{
OFFSET 145.971 0 0
CHANNELS 3 Xrotation Yrotation Zrotation
JOINT rtoe_EF
{
OFFSET 20.2604 0 0
CHANNELS 3 Xrotation Yrotation Zrotation
End Site
{
OFFSET 0 0 0
}
}
}
}
}
}
JOINT thorax
{
OFFSET 0 0 192.451
CHANNELS 3 Xrotation Yrotation Zrotation
JOINT lclavicle
{
OFFSET 61.9711 0 353.504
CHANNELS 3 Xrotation Yrotation Zrotation
JOINT lhumerus
{
OFFSET -61.9711 177.235 27.1679
CHANNELS 3 Xrotation Yrotation Zrotation
JOINT lradius
{
OFFSET 0 0 -288.663
CHANNELS 3 Xrotation Yrotation Zrotation
JOINT lhand
{
OFFSET 0 0 -248.805
CHANNELS 3 Xrotation Yrotation Zrotation
End Site
{
OFFSET 0 0 0
}
}
}
}
}
JOINT rclavicle
{
OFFSET 61.9711 0 353.504
CHANNELS 3 Xrotation Yrotation Zrotation
JOINT rhumerus
{
OFFSET -61.9711 -177.235 27.1679
CHANNELS 3 Xrotation Yrotation Zrotation
JOINT rradius
{
OFFSET 0 0 -288.663
CHANNELS 3 Xrotation Yrotation Zrotation
JOINT rhand
{
OFFSET 0 0 -248.805
CHANNELS 3 Xrotation Yrotation Zrotation
End Site
{
OFFSET 0 0 0
}
}
}
}
}
JOINT Neck_Root
{
OFFSET 0 0 348.975
CHANNELS 3 Xrotation Yrotation Zrotation
JOINT head
{
OFFSET 34.2596 -9.05976 100.79
CHANNELS 3 Xrotation Yrotation Zrotation
End Site
{
OFFSET 0 0 0
}
}
}
}
}
MOTION
Frames: 17
Frame Time: 0.00833333
-76.469536 241.561569 952.355347 -0.919719 6.305303 2.597878 3.098410 -1.634293 24.797528 -1.006275 -4.169914 -0.099511 2.201407 20.572940 -3.594809 -1.610168 -7.108301 0.509955 0.000000 0.000000 0.000000 -1.935325 -2.172367 -27.672300 0.988349 -4.463669 0.141305 -9.380954 23.688178 -0.211581 1.001709 -3.829031 -0.193722 0.000000 0.000000 0.000000 -1.225025 -6.902454 3.949160 -10.833264 0.635933 0.368824 88.725729 -8.784069 6.463734 -32.757582 -72.368885 -83.440602 -2.510401 4.070819 4.158541 14.317589 -0.581285 -2.212760 -94.350083 -3.544995 -3.351171 50.403551 70.833404 40.555408 0.326271 -3.979635 19.838126 0.000000 0.000000 0.000000 -0.539028 3.009178 -5.784374 
-76.488274 241.563019 952.354492 -0.911676 6.274353 2.601932 3.090505 -1.607043 24.784298 -1.004719 -4.164527 -0.099284 2.220503 20.586831 -3.587161 -1.613440 -7.120843 0.510420 0.000000 0.000000 0.000000 -1.942624 -2.140873 -27.674851 0.988465 -4.464446 0.141365 -9.379293 23.684696 -0.212763 1.006636 -3.848490 -0.194204 0.000000 0.000000 0.000000 -1.277323 -6.869532 3.951715 -10.337597 0.630859 0.559343 87.960279 -9.135048 6.319152 -31.945872 -72.284820 -82.891220 -2.408975 4.000129 4.094181 14.355712 -0.595130 -2.119737 -94.367541 -3.428705 -3.377027 50.421162 70.778042 40.698706 0.231020 -3.914347 19.479626 0.000000 0.000000 0.000000 -0.398835 3.055489 -5.801572 
-76.472694 241.558395 952.369141 -0.914414 6.280401 2.604064 3.093714 -1.611497 24.778527 -1.004701 -4.165140 -0.099306 2.218426 20.578055 -3.584649 -1.619656 -7.150073 0.511071 0.000000 0.000000 0.000000 -1.940051 -2.143370 -27.679555 0.989375 -4.468040 0.141505 -9.377051 23.680088 -0.212984 1.004429 -3.839723 -0.193891 0.000000 0.000000 0.000000 -1.272560 -6.872041 3.956270 -10.341642 0.631545 0.557755 87.957725 -9.142466 6.330676 -31.966466 -72.280924 -82.901140 -2.406910 3.996722 4.089760 14.353715 -0.595331 -2.122351 -94.377054 -3.435012 -3.388020 50.461600 70.802618 40.692227 0.237136 -3.911695 19.478225 0.000000 0.000000 0.000000 -0.403113 3.064175 -5.818807 
-76.445999 241.572662 952.363892 -0.912071 6.280262 2.604720 3.090510 -1.609563 24.788424 -1.005078 -4.164958 -0.099250 2.213774 20.580146 -3.590692 -1.614037 -7.123132 0.510692 0.000000 0.000000 0.000000 -1.944017 -2.139328 -27.676364 0.989480 -4.469288 0.141579 -9.372853 23.681052 -0.211588 1.002667 -3.833712 -0.193676 0.000000 0.000000 0.000000 -1.274162 -6.869199 3.952981 -10.343703 0.631447 0.557235 87.955840 -9.140389 6.339456 -31.963528 -72.272974 -82.912291 -2.391819 3.993002 4.093028 14.348977 -0.594835 -2.121567 -94.384191 -3.446640 -3.387691 50.522691 70.831498 40.650931 0.238403 -3.909338 19.477145 0.000000 0.000000 0.000000 -0.402878 3.077948 -5.824752 
-76.429626 241.584549 952.356018 -0.907372 6.285940 2.600778 3.088022 -1.614366 24.780162 -1.004154 -4.163077 -0.099233 2.214214 20.582072 -3.588709 -1.614180 -7.126606 0.510536 0.000000 0.000000 0.000000 -1.948185 -2.145845 -27.676682 0.989085 -4.466853 0.141444 -9.376471 23.680669 -0.212471 1.005104 -3.842387 -0.194002 0.000000 0.000000 0.000000 -1.279303 -6.872807 3.952419 -10.347994 0.630829 0.551956 87.960333 -9.126650 6.355083 -32.023632 -72.278136 -82.953805 -2.402203 3.998510 4.096342 14.353374 -0.594476 -2.121521 -94.405084 -3.458816 -3.381753 50.622150 70.885859 40.573355 0.232893 -3.911451 19.505818 0.000000 0.000000 0.000000 -0.403975 3.093965 -5.832301 
-76.415497 241.588791 952.352417 -0.906902 6.293352 2.601253 3.086881 -1.621054 24.784192 -1.004544 -4.164018 -0.099258 2.208522 20.581944 -3.592955 -1.611061 -7.112820 0.510327 0.000000 0.000000 0.000000 -1.949119 -2.150315 -27.681375 0.990635 -4.473098 0.141741 -9.371613 23.683816 -0.207899 1.000845 -3.825936 -0.193664 0.000000 0.000000 0.000000 -1.278844 -6.879988 3.953078 -10.349931 0.630625 0.548047 87.956157 -9.126766 6.363835 -32.037551 -72.272994 -82.971719 -2.394743 3.993465 4.093801 14.350184 -0.594321 -2.122898 -94.414593 -3.466830 -3.376857 50.672284 70.912422 40.528778 0.233180 -3.916062 19.535772 0.000000 0.000000 0.000000 -0.408161 3.110195 -5.846249 
-76.371117 241.587402 952.352539 -0.906687 6.291372 2.602177 3.086252 -1.615510 24.777067 -1.004782 -4.165954 -0.099262 2.219424 20.577197 -3.583745 -1.612303 -7.117164 0.509714 0.000000 0.000000 0.000000 -1.949535 -2.143693 -27.680810 0.991453 -4.477041 0.141897 -9.370210 23.680149 -0.209403 1.004926 -3.842047 -0.194025 0.000000 0.000000 0.000000 -1.277683 -6.878124 3.955008 -10.345874 0.630404 0.545945 87.930019 -9.144837 6.378783 -32.046142 -72.262161 -82.998682 -2.391083 3.986210 4.088966 14.343047 -0.594539 -2.121319 -94.418122 -3.472047 -3.379063 50.711736 70.932179 40.512743 0.222570 -3.905285 19.482936 0.000000 0.000000 0.000000 -0.410406 3.137657 -5.853168 
-76.351753 241.586502 952.355469 -0.906741 6.293941 2.599332 3.086957 -1.617026 24.777246 -1.004352 -4.164635 -0.099208 2.223227 20.579787 -3.581956 -1.616181 -7.134518 0.510342 0.000000 0.000000 0.000000 -1.949651 -2.144651 -27.681951 0.992012 -4.478831 0.141982 -9.364016 23.682503 -0.203901 1.001884 -3.830434 -0.193917 0.000000 0.000000 0.000000 -1.277046 -6.877878 3.958610 -10.347908 0.630907 0.548324 87.921457 -9.158031 6.393205 -32.070468 -72.260172 -83.022155 -2.406458 3.994924 4.096587 14.337164 -0.594482 -2.119663 -94.418961 -3.480806 -3.381386 50.758529 70.956478 40.483320 0.213210 -3.903853 19.479424 0.000000 0.000000 0.000000 -0.409899 3.150223 -5.861754 
-76.331017 241.591980 952.357666 -0.905573 6.290520 2.596066 3.086677 -1.612350 24.783990 -1.004391 -4.164192 -0.099204 2.217611 20.594700 -3.591223 -1.621047 -7.157393 0.512344 0.000000 0.000000 0.000000 -1.951106 -2.140603 -27.685985 0.992283 -4.478713 0.142006 -9.359546 23.684496 -0.198573 0.998516 -3.816948 -0.193793 0.000000 0.000000 0.000000 -1.278112 -6.868728 3.959499 -10.301461 0.633848 0.600592 87.838102 -9.239486 6.384880 -31.945259 -72.236033 -82.916281 -2.383278 3.976614 4.078238 14.331229 -0.594196 -2.115881 -94.421367 -3.485776 -3.385031 50.815724 70.998625 40.441975 0.199532 -3.900231 19.469608 0.000000 0.000000 0.000000 -0.409253 3.157679 -5.868977 
-76.297791 241.598450 952.351868 -0.903867 6.291744 2.594540 3.085832 -1.611076 24.781565 -1.003769 -4.162235 -0.099110 2.221181 20.588101 -3.586555 -1.617143 -7.139479 0.511143 0.000000 0.000000 0.000000 -1.952590 -2.137407 -27.686007 0.993089 -4.482087 0.142120 -9.367933 23.686796 -0.202214 1.009285 -3.857830 -0.194972 0.000000 0.000000 0.000000 -1.278611 -6.873819 3.960329 -10.335382 0.631479 0.562147 87.885083 -9.185940 6.405660 -32.078303 -72.255917 -83.034973 -2.407091 3.991045 4.093707 14.318991 -0.594228 -2.112094 -94.416585 -3.492080 -3.376224 50.881003 71.053230 40.382934 0.194966 -3.902291 19.493475 0.000000 0.000000 0.000000 -0.414765 3.184274 -5.882185 
-76.273903 241.596344 952.358093 -0.902953 6.295084 2.593748 3.085575 -1.614771 24.778669 -1.002495 -4.157580 -0.098935 2.218230 20.574119 -3.583550 -1.612285 -7.118519 0.509755 0.000000 0.000000 0.000000 -1.953121 -2.138176 -27.687833 0.993698 -4.484366 0.142186 -9.368631 23.687328 -0.201747 1.010070 -3.860531 -0.195113 0.000000 0.000000 0.000000 -1.277159 -6.874990 3.966238 -10.363507 0.631513 0.543316 87.921950 -9.165665 6.423412 -32.179545 -72.272541 -83.096500 -2.424922 4.002225 4.104396 14.313676 -0.593263 -2.123504 -94.423460 -3.502882 -3.350861 50.990602 71.164273 40.211866 0.237325 -3.961665 19.839447 0.000000 0.000000 0.000000 -0.423797 3.193824 -5.890312 
-76.234833 241.597748 952.362366 -0.903829 6.296041 2.594373 3.086910 -1.616135 24.789172 -1.002516 -4.155930 -0.098889 2.207498 20.574684 -3.592558 -1.612634 -7.119839 0.510568 0.000000 0.000000 0.000000 -1.953220 -2.135156 -27.689338 0.994736 -4.488865 0.142411 -9.356868 23.690346 -0.193935 1.002579 -3.832530 -0.194500 0.000000 0.000000 0.000000 -1.274032 -6.875553 3.971994 -10.366761 0.632207 0.543066 87.915168 -9.177264 6.423505 -32.175259 -72.272900 -83.097428 -2.414310 3.995752 4.102502 14.307642 -0.593852 -2.122174 -94.426228 -3.509104 -3.371244 50.927524 71.073557 40.324629 0.206519 -3.915285 19.560051 0.000000 0.000000 0.000000 -0.430895 3.211935 -5.897114 
-76.193779 241.603806 952.360168 -0.900495 6.293782 2.595825 3.083930 -1.612172 24.787377 -1.002578 -4.156165 -0.098886 2.213376 20.584111 -3.592261 -1.619712 -7.150717 0.512057 0.000000 0.000000 0.000000 -1.956127 -2.130002 -27.684606 0.994969 -4.491095 0.142473 -9.370781 23.689908 -0.203995 1.009187 -3.857493 -0.194827 0.000000 0.000000 0.000000 -1.278211 -6.870432 3.968227 -10.365799 0.633388 0.555504 87.901766 -9.202275 6.433407 -32.137629 -72.257523 -83.109652 -2.413195 3.995382 4.106026 14.305082 -0.594338 -2.113985 -94.432635 -3.505515 -3.375403 50.895653 71.033480 40.360536 0.188217 -3.905154 19.483747 0.000000 0.000000 0.000000 -0.432518 3.222071 -5.887099 
-76.176712 241.609528 952.357849 -0.901245 6.289730 2.594875 3.085264 -1.607473 24.780524 -1.001266 -4.151960 -0.098700 2.223322 20.579368 -3.583824 -1.614539 -7.126632 0.510438 0.000000 0.000000 0.000000 -1.955809 -2.124771 -27.679958 0.994813 -4.491055 0.142469 -9.373551 23.689324 -0.206886 1.019722 -3.898598 -0.195936 0.000000 0.000000 0.000000 -1.279398 -6.860240 3.970956 -10.296900 0.634931 0.602997 87.789030 -9.278462 6.416347 -32.010609 -72.242459 -83.000297 -2.378527 3.971186 4.084930 14.309945 -0.595337 -2.106687 -94.449070 -3.495947 -3.378648 50.912226 71.048650 40.344834 0.178495 -3.910130 19.506928 0.000000 0.000000 0.000000 -0.423777 3.223811 -5.891081 
-76.151299 241.608063 952.359619 -0.901579 6.291825 2.598639 3.086500 -1.608068 24.783370 -1.001849 -4.153358 -0.098776 2.211903 20.578709 -3.591609 -1.610781 -7.110626 0.510305 0.000000 0.000000 0.000000 -1.956311 -2.123693 -27.683090 0.994567 -4.490080 0.142404 -9.366354 23.680573 -0.206570 1.011689 -3.867919 -0.194922 0.000000 0.000000 0.000000 -1.277134 -6.864000 3.968568 -10.343999 0.632709 0.557088 87.854007 -9.212357 6.438078 -32.153212 -72.266223 -83.126852 -2.373580 3.971346 4.095172 14.302977 -0.595151 -2.107496 -94.449252 -3.504580 -3.373284 50.902093 71.032038 40.340734 0.179724 -3.908754 19.487219 0.000000 0.000000 0.000000 -0.432769 3.241023 -5.895177 
-76.124008 241.596161 952.357910 -0.899370 6.294776 2.601171 3.085613 -1.612783 24.787216 -1.000730 -4.147733 -0.098615 2.204496 20.576794 -3.597184 -1.611999 -7.116052 0.510962 0.000000 0.000000 0.000000 -1.959249 -2.122381 -27.685087 0.994603 -4.490406 0.142396 -9.358987 23.674426 -0.205160 0.989751 -3.783161 -0.192244 0.000000 0.000000 0.000000 -1.279265 -6.866784 3.967578 -10.372689 0.632341 0.537289 87.895269 -9.182012 6.451633 -32.247388 -72.282747 -83.189267 -2.389487 3.981329 4.103904 14.294890 -0.594592 -2.111875 -94.442042 -3.515904 -3.373174 50.934799 71.067325 40.308799 0.169594 -3.899181 19.442843 0.000000 0.000000 0.000000 -0.440107 3.252432 -5.901981 
-76.087227 241.598587 952.356018 -0.898653 6.291653 2.606442 3.085464 -1.609671 24.773200 -0.999347 -4.143367 -0.098436 2.211926 20.576411 -3.591547 -1.620933 -7.156677 0.512186 0.000000 0.000000 0.000000 -1.960846 -2.117733 -27.695487 0.994129 -4.487332 0.142261 -9.357322 23.675904 -0.201887 1.002403 -3.831964 -0.194029 0.000000 0.000000 0.000000 -1.279336 -6.860958 3.963199 -10.382026 0.633964 0.546303 87.899975 -9.199258 6.456171 -32.265876 -72.287620 -83.173677 -2.391194 3.976518 4.095431 14.285936 -0.593905 -2.115029 -94.435871 -3.524678 -3.371876 50.962426 71.092634 40.273634 0.158948 -3.902993 19.462231 0.000000 0.000000 0.000000 -0.444023 3.261011 -5.900097 
